<svg xmlns="http://www.w3.org/2000/svg" width="164" height="36" viewBox="0 0 164 36" fill="none"><path d="M51.924 31V17.32C51.924 16.168 51.588 15.328 50.916 14.8C50.244 14.272 49.404 14.008 48.396 14.008C47.244 14.008 46.224 14.296 45.336 14.872C44.448 15.448 43.788 16.156 43.356 16.996L40.476 14.404C41.388 13.036 42.564 12.04 44.004 11.416C45.468 10.768 47.016 10.444 48.648 10.444C50.208 10.444 51.54 10.684 52.644 11.164C53.772 11.644 54.636 12.4 55.236 13.432C55.86 14.464 56.172 15.82 56.172 17.5V31H51.924ZM46.272 31.396C44.328 31.396 42.828 30.868 41.772 29.812C40.716 28.732 40.188 27.34 40.188 25.636C40.188 23.812 40.788 22.372 41.988 21.316C43.212 20.236 45.048 19.492 47.496 19.084L52.392 18.22V21.388L47.928 22.18C46.752 22.42 45.876 22.792 45.3 23.296C44.748 23.8 44.472 24.472 44.472 25.312C44.472 26.272 44.76 26.968 45.336 27.4C45.936 27.832 46.656 28.048 47.496 28.048C48.888 28.048 49.968 27.556 50.736 26.572C51.528 25.564 51.924 24.136 51.924 22.288L52.176 25.384C52.2 27.256 51.696 28.732 50.664 29.812C49.656 30.868 48.192 31.396 46.272 31.396ZM66.3113 31C64.9433 31 63.8633 30.832 63.0713 30.496C62.3033 30.16 61.7633 29.608 61.4513 28.84C61.1393 28.072 60.9833 27.052 60.9833 25.78V5.764H65.1953V25.492C65.1953 26.188 65.3393 26.68 65.6273 26.968C65.9153 27.256 66.3833 27.4 67.0313 27.4H69.7673V31H66.3113ZM57.6353 14.584V10.984H69.7673V14.584H57.6353ZM83.3551 31V17.32C83.3551 16.168 83.0191 15.328 82.3471 14.8C81.6751 14.272 80.8351 14.008 79.8271 14.008C78.6751 14.008 77.6551 14.296 76.7671 14.872C75.8791 15.448 75.2191 16.156 74.7871 16.996L71.9071 14.404C72.8191 13.036 73.9951 12.04 75.4351 11.416C76.8991 10.768 78.4471 10.444 80.0791 10.444C81.6391 10.444 82.9711 10.684 84.0751 11.164C85.2031 11.644 86.0671 12.4 86.6671 13.432C87.2911 14.464 87.6031 15.82 87.6031 17.5V31H83.3551ZM77.7031 31.396C75.7591 31.396 74.2591 30.868 73.2031 29.812C72.1471 28.732 71.6191 27.34 71.6191 25.636C71.6191 23.812 72.2191 22.372 73.4191 21.316C74.6431 20.236 76.4791 19.492 78.9271 19.084L83.8231 18.22V21.388L79.3591 22.18C78.1831 22.42 77.3071 22.792 76.7311 23.296C76.1791 23.8 75.9031 24.472 75.9031 25.312C75.9031 26.272 76.1911 26.968 76.7671 27.4C77.3671 27.832 78.0871 28.048 78.9271 28.048C80.3191 28.048 81.3991 27.556 82.1671 26.572C82.9591 25.564 83.3551 24.136 83.3551 22.288L83.6071 25.384C83.6311 27.256 83.1271 28.732 82.0951 29.812C81.0871 30.868 79.6231 31.396 77.7031 31.396ZM113.283 31V18.04C113.283 16.696 112.995 15.688 112.419 15.016C111.843 14.32 111.027 13.972 109.971 13.972C108.843 13.972 107.955 14.332 107.307 15.052C106.659 15.748 106.335 16.756 106.335 18.076L105.651 15.016C105.867 13.648 106.479 12.544 107.487 11.704C108.495 10.864 109.791 10.444 111.375 10.444C113.343 10.444 114.855 11.02 115.911 12.172C116.967 13.3 117.495 15.028 117.495 17.356V31H113.283ZM90.9635 31V10.948H95.1755V31H90.9635ZM102.123 31V18.04C102.123 16.696 101.835 15.688 101.259 15.016C100.707 14.32 99.8795 13.972 98.7755 13.972C97.6715 13.972 96.7955 14.332 96.1475 15.052C95.4995 15.748 95.1755 16.756 95.1755 18.076L94.8875 15.052C94.9355 13.756 95.4515 12.664 96.4355 11.776C97.4435 10.888 98.7755 10.444 100.431 10.444C102.327 10.444 103.779 11.02 104.787 12.172C105.819 13.3 106.335 15.028 106.335 17.356V31H102.123ZM120.865 31V10.984H125.077V31H120.865ZM122.917 8.032C122.125 8.032 121.477 7.78 120.973 7.276C120.493 6.772 120.253 6.172 120.253 5.476C120.253 4.804 120.493 4.228 120.973 3.748C121.477 3.244 122.125 2.992 122.917 2.992C123.733 2.992 124.381 3.244 124.861 3.748C125.365 4.228 125.617 4.804 125.617 5.476C125.617 6.196 125.365 6.808 124.861 7.312C124.357 7.792 123.709 8.032 122.917 8.032ZM135.703 31.54C133.447 31.54 131.599 31.084 130.159 30.172C128.743 29.236 127.831 27.856 127.423 26.032L131.347 24.988C131.563 26.164 132.067 27.028 132.859 27.58C133.675 28.108 134.647 28.372 135.775 28.372C136.783 28.372 137.599 28.12 138.223 27.616C138.871 27.112 139.195 26.512 139.195 25.816C139.195 24.928 138.847 24.244 138.151 23.764C137.455 23.26 136.207 22.84 134.407 22.504C132.295 22.096 130.711 21.352 129.655 20.272C128.623 19.192 128.107 17.884 128.107 16.348C128.107 15.148 128.419 14.104 129.043 13.216C129.667 12.328 130.519 11.644 131.599 11.164C132.703 10.684 133.987 10.444 135.451 10.444C137.539 10.444 139.231 10.84 140.527 11.632C141.823 12.4 142.711 13.672 143.191 15.448L139.411 16.744C139.099 15.544 138.595 14.728 137.899 14.296C137.227 13.84 136.399 13.612 135.415 13.612C134.551 13.612 133.831 13.804 133.255 14.188C132.679 14.572 132.391 15.1 132.391 15.772C132.391 16.54 132.691 17.164 133.291 17.644C133.915 18.1 135.043 18.496 136.675 18.832C138.931 19.288 140.611 20.032 141.715 21.064C142.843 22.096 143.407 23.476 143.407 25.204C143.407 27.196 142.723 28.756 141.355 29.884C139.987 30.988 138.103 31.54 135.703 31.54ZM157.045 31V17.32C157.045 16.168 156.709 15.328 156.037 14.8C155.365 14.272 154.525 14.008 153.517 14.008C152.365 14.008 151.345 14.296 150.457 14.872C149.569 15.448 148.909 16.156 148.477 16.996L145.597 14.404C146.509 13.036 147.685 12.04 149.125 11.416C150.589 10.768 152.137 10.444 153.769 10.444C155.329 10.444 156.661 10.684 157.765 11.164C158.893 11.644 159.757 12.4 160.357 13.432C160.981 14.464 161.293 15.82 161.293 17.5V31H157.045ZM151.393 31.396C149.449 31.396 147.949 30.868 146.893 29.812C145.837 28.732 145.309 27.34 145.309 25.636C145.309 23.812 145.909 22.372 147.109 21.316C148.333 20.236 150.169 19.492 152.617 19.084L157.513 18.22V21.388L153.049 22.18C151.873 22.42 150.997 22.792 150.421 23.296C149.869 23.8 149.593 24.472 149.593 25.312C149.593 26.272 149.881 26.968 150.457 27.4C151.057 27.832 151.777 28.048 152.617 28.048C154.009 28.048 155.089 27.556 155.857 26.572C156.649 25.564 157.045 24.136 157.045 22.288L157.297 25.384C157.321 27.256 156.817 28.732 155.785 29.812C154.777 30.868 153.313 31.396 151.393 31.396Z" fill="white"></path><path d="M0.000305446 22.873L19.303 34.0247L21.6883 32.6465L0.000305446 20.1155V22.873Z" fill="#C0FF70"></path><path d="M0.000305446 24.2942V26.4363C0.000305446 26.9482 0.275397 27.4256 0.718668 27.682L14.7817 35.8071C14.9996 35.9334 15.2483 36 15.5001 36C15.7518 36 16.0005 35.9335 16.2184 35.8079L18.0719 34.7365L0.000305446 24.2942Z" fill="#C0FF70"></path><path d="M19.1761 29.7014L30.9999 22.8697V20.1038L16.7818 28.3179L19.1761 29.7014Z" fill="#C0FF70"></path><path d="M22.9806 31.8996L30.2818 27.6809C30.7246 27.4255 31 26.948 31 26.4361V24.293L20.4065 30.4125L22.9806 31.8996Z" fill="#C0FF70"></path><path d="M15.5001 0L9.25364 3.60984L9.25319 3.61014V1.80832L6.24689 0V5.34668L6.24644 5.34698L0 8.95591V18.6218L15.4901 27.5722L31 18.611V8.95591L15.5001 0ZM14.9434 16.3601H12.9281V14.3442H14.9434V16.3601ZM14.9434 13.229H12.9281V11.2121H14.9434V13.229ZM18.0721 16.3601H16.0568V14.3442H18.0721V16.3601ZM18.0721 13.229H16.0568V11.2121H18.0721V13.229Z" fill="#C0FF70"></path></svg>