<svg xmlns="http://www.w3.org/2000/svg" width="104" height="32" viewBox="0 0 104 32"><path d="M9.446 7.075c2.4 0 4.474 0.413 6.221 1.238 1.766 0.806 3.12 1.939 4.061 3.398 0.96 1.44 1.44 3.12 1.44 5.040 0 1.498-0.288 2.842-0.864 4.032-0.557 1.19-1.344 2.208-2.362 3.053-1.018 0.826-2.208 1.459-3.571 1.901-1.344 0.442-2.803 0.662-4.378 0.662h-3.37c-1.229 0-2.237 0.010-3.024 0.029s-1.411 0.029-1.872 0.029c-0.077 0-0.134-0.048-0.173-0.144s-0.058-0.202-0.058-0.317c0-0.134 0.019-0.25 0.058-0.346 0.038-0.115 0.096-0.173 0.173-0.173h1.238c0.499 0 0.816-0.096 0.95-0.288 0.154-0.192 0.23-0.538 0.23-1.037v-13.709c0-0.749-0.038-1.296-0.115-1.642-0.058-0.346-0.134-0.566-0.23-0.662-0.077-0.096-0.163-0.144-0.259-0.144h-1.814c-0.173 0-0.259-0.144-0.259-0.432 0-0.115 0.019-0.23 0.058-0.346 0.058-0.134 0.125-0.202 0.202-0.202 0.23 0 0.566 0.010 1.008 0.029 0.442 0 0.912 0.010 1.411 0.029 0.518 0 0.979 0 1.382 0h3.917zM10.080 25.219c1.574-0.019 2.947-0.346 4.118-0.979s2.074-1.526 2.707-2.678c0.653-1.152 0.979-2.515 0.979-4.090 0-1.728-0.326-3.254-0.979-4.579-0.653-1.344-1.69-2.419-3.11-3.226-1.402-0.826-3.264-1.306-5.587-1.44-0.346-0.019-0.614 0.067-0.806 0.259-0.192 0.173-0.288 0.48-0.288 0.922v13.306c0 0.73 0.029 1.277 0.086 1.642 0.077 0.365 0.163 0.605 0.259 0.72s0.182 0.173 0.259 0.173l2.362-0.029zM29.801 13.44c0.902 0 1.766 0.173 2.592 0.518 0.826 0.326 1.565 0.797 2.218 1.411 0.653 0.595 1.171 1.296 1.555 2.102s0.576 1.67 0.576 2.592c0 1.286-0.317 2.438-0.95 3.456s-1.478 1.814-2.534 2.39c-1.037 0.576-2.189 0.864-3.456 0.864-1.248 0-2.4-0.307-3.456-0.922-1.037-0.614-1.872-1.43-2.506-2.448-0.634-1.037-0.95-2.189-0.95-3.456 0-0.922 0.192-1.776 0.576-2.563s0.902-1.478 1.555-2.074c0.653-0.595 1.392-1.056 2.218-1.382s1.68-0.49 2.563-0.49zM29.685 14.477c-0.71 0-1.315 0.173-1.814 0.518-0.499 0.326-0.902 0.768-1.21 1.325s-0.538 1.162-0.691 1.814c-0.134 0.653-0.202 1.296-0.202 1.93 0 0.902 0.134 1.795 0.403 2.678 0.269 0.864 0.71 1.584 1.325 2.16 0.614 0.557 1.43 0.835 2.448 0.835 0.96 0 1.718-0.278 2.275-0.835 0.576-0.557 0.989-1.258 1.238-2.102 0.269-0.864 0.403-1.718 0.403-2.563 0-0.922-0.134-1.824-0.403-2.707-0.25-0.883-0.682-1.613-1.296-2.189s-1.44-0.864-2.477-0.864zM43.133 15.226c0.576-0.538 1.248-0.97 2.016-1.296s1.469-0.49 2.102-0.49c0.922 0 1.728 0.182 2.419 0.547 0.71 0.346 1.258 0.912 1.642 1.699h0.058c0.557-0.518 1.238-1.018 2.045-1.498 0.806-0.499 1.68-0.749 2.621-0.749 1.421 0 2.554 0.422 3.398 1.267 0.864 0.826 1.296 2.246 1.296 4.262v4.032c0 0.73 0.029 1.277 0.086 1.642s0.134 0.605 0.23 0.72c0.096 0.115 0.192 0.173 0.288 0.173h1.411c0.077 0 0.134 0.058 0.173 0.173s0.058 0.221 0.058 0.317c0 0.077-0.019 0.163-0.058 0.259-0.019 0.077-0.058 0.115-0.115 0.115-0.518 0-0.941 0-1.267 0-0.307-0.019-0.595-0.029-0.864-0.029s-0.605 0-1.008 0c-0.826 0-1.45 0.010-1.872 0.029-0.422 0.038-0.912 0.058-1.469 0.058-0.058 0-0.106-0.048-0.144-0.144-0.038-0.115-0.058-0.211-0.058-0.288 0-0.096 0.010-0.192 0.029-0.288 0.038-0.096 0.077-0.144 0.115-0.144h1.67c0.23 0 0.346-0.163 0.346-0.49v-4.867c0-1.306-0.106-2.333-0.317-3.082-0.211-0.768-0.576-1.315-1.094-1.642-0.499-0.326-1.21-0.49-2.131-0.49-0.538 0-1.094 0.144-1.67 0.432-0.576 0.269-1.056 0.624-1.44 1.066 0.211 0.73 0.317 1.546 0.317 2.448v4.032c0 0.73 0.029 1.277 0.086 1.642s0.134 0.605 0.23 0.72c0.096 0.115 0.192 0.173 0.288 0.173h1.411c0.077 0 0.134 0.058 0.173 0.173s0.058 0.221 0.058 0.317c0 0.077-0.019 0.163-0.058 0.259-0.019 0.077-0.058 0.115-0.115 0.115-0.518 0-0.941 0-1.267 0-0.307-0.019-0.595-0.029-0.864-0.029s-0.605 0-1.008 0c-0.826 0-1.45 0.010-1.872 0.029-0.422 0.038-0.912 0.058-1.469 0.058-0.058 0-0.106-0.048-0.144-0.144-0.038-0.115-0.058-0.211-0.058-0.288 0-0.096 0.010-0.192 0.029-0.288 0.038-0.096 0.077-0.144 0.115-0.144h1.67c0.23 0 0.346-0.163 0.346-0.49v-4.867c0-1.306-0.106-2.333-0.317-3.082-0.211-0.768-0.576-1.315-1.094-1.642-0.499-0.326-1.21-0.49-2.131-0.49-0.576 0-1.114 0.115-1.613 0.346-0.499 0.211-0.893 0.48-1.181 0.806v6.826c0 0.73 0.029 1.277 0.086 1.642s0.134 0.605 0.23 0.72c0.096 0.115 0.192 0.173 0.288 0.173h1.411c0.077 0 0.134 0.058 0.173 0.173s0.058 0.221 0.058 0.317c0 0.077-0.019 0.163-0.058 0.259-0.019 0.077-0.058 0.115-0.115 0.115-0.518 0-0.941 0-1.267 0-0.307-0.019-0.595-0.029-0.864-0.029s-0.605 0-1.008 0c-0.826 0-1.45 0.010-1.872 0.029-0.422 0.038-0.912 0.058-1.469 0.058-0.058 0-0.106-0.048-0.144-0.144-0.038-0.115-0.058-0.211-0.058-0.288 0-0.096 0.010-0.192 0.029-0.288 0.038-0.096 0.077-0.144 0.115-0.144h1.67c0.23 0 0.346-0.163 0.346-0.49v-6.768c0-0.826-0.038-1.43-0.115-1.814-0.077-0.403-0.182-0.662-0.317-0.778-0.115-0.134-0.24-0.202-0.374-0.202h-0.576c-0.058 0-0.115-0.048-0.173-0.144-0.038-0.115-0.058-0.221-0.058-0.317 0-0.058 0.010-0.134 0.029-0.23 0.019-0.115 0.067-0.173 0.144-0.173 0.442 0 0.854-0.096 1.238-0.288 0.384-0.211 0.72-0.451 1.008-0.72 0.307-0.288 0.566-0.528 0.778-0.72 0.211-0.211 0.355-0.317 0.432-0.317 0.269 0 0.403 0.115 0.403 0.346 0 0.346-0.010 0.634-0.029 0.864 0 0.211-0.010 0.413-0.029 0.605 0 0.192 0 0.451 0 0.778h0.058zM68.587 23.002c0 0.73 0.029 1.277 0.086 1.642s0.134 0.605 0.23 0.72c0.096 0.115 0.192 0.173 0.288 0.173h1.411c0.077 0 0.134 0.058 0.173 0.173s0.058 0.221 0.058 0.317c0 0.077-0.019 0.163-0.058 0.259-0.019 0.077-0.058 0.115-0.115 0.115-0.518 0-0.941 0-1.267 0-0.307-0.019-0.595-0.029-0.864-0.029s-0.605 0-1.008 0c-0.826 0-1.45 0.010-1.872 0.029-0.422 0.038-0.912 0.058-1.469 0.058-0.058 0-0.106-0.048-0.144-0.144-0.038-0.115-0.058-0.211-0.058-0.288 0-0.096 0.010-0.192 0.029-0.288 0.038-0.096 0.077-0.144 0.115-0.144h1.67c0.23 0 0.346-0.163 0.346-0.49v-15.523c0-0.826-0.038-1.43-0.115-1.814-0.058-0.403-0.144-0.662-0.259-0.778-0.115-0.134-0.23-0.202-0.346-0.202h-1.296c-0.058 0-0.115-0.048-0.173-0.144-0.038-0.115-0.058-0.221-0.058-0.317 0-0.058 0.010-0.134 0.029-0.23 0.019-0.115 0.067-0.173 0.144-0.173 1.037 0 1.882-0.134 2.534-0.403 0.672-0.269 1.2-0.48 1.584-0.634 0.288 0 0.432 0.115 0.432 0.346 0 0.269 0 0.787 0 1.555 0 0.749-0.010 1.651-0.029 2.707 0 1.056 0 2.17 0 3.341 0 1.152 0 2.266 0 3.341v6.826zM76.733 19.978c0 1.286 0.096 2.314 0.288 3.082 0.211 0.768 0.557 1.315 1.037 1.642s1.152 0.49 2.016 0.49c0.576 0 1.114-0.154 1.613-0.461 0.499-0.326 0.893-0.758 1.181-1.296v-6.221c0-0.749-0.029-1.296-0.086-1.642-0.058-0.365-0.134-0.605-0.23-0.72s-0.192-0.173-0.288-0.173h-1.411c-0.077-0.019-0.134-0.077-0.173-0.173-0.038-0.115-0.058-0.221-0.058-0.317s0.010-0.182 0.029-0.259c0.038-0.077 0.086-0.115 0.144-0.115 0.48 0 0.874 0.010 1.181 0.029 0.326 0 0.614 0 0.864 0 0.442 0 0.778-0.010 1.008-0.029s0.442-0.029 0.634-0.029c0.211-0.019 0.47-0.029 0.778-0.029 0.192 0 0.288 0.077 0.288 0.23 0 0.096-0.019 0.202-0.058 0.317s-0.077 0.355-0.115 0.72c-0.038 0.365-0.058 0.97-0.058 1.814v5.357c0 0.653 0.019 1.162 0.058 1.526 0.058 0.365 0.173 0.624 0.346 0.778 0.154 0.115 0.355 0.173 0.605 0.173 0.173 0 0.346-0.010 0.518-0.029 0.173-0.038 0.326-0.058 0.461-0.058 0.058 0 0.106 0.048 0.144 0.144 0.058 0.096 0.086 0.192 0.086 0.288 0 0.25-0.058 0.394-0.173 0.432-0.826 0.134-1.488 0.307-1.987 0.518s-0.883 0.394-1.152 0.547c-0.25 0.173-0.442 0.259-0.576 0.259-0.25 0-0.432-0.202-0.547-0.605-0.096-0.403-0.144-0.902-0.144-1.498h-0.058c-0.538 0.73-1.2 1.267-1.987 1.613-0.787 0.326-1.498 0.49-2.131 0.49-1.344 0-2.429-0.413-3.254-1.238-0.826-0.845-1.238-2.275-1.238-4.291v-4.032c0-0.749-0.029-1.296-0.086-1.642-0.058-0.365-0.134-0.605-0.23-0.72s-0.192-0.173-0.288-0.173h-1.411c-0.077-0.019-0.134-0.077-0.173-0.173-0.038-0.115-0.058-0.221-0.058-0.317s0.010-0.182 0.029-0.259c0.038-0.077 0.086-0.115 0.144-0.115 0.48 0 0.874 0.010 1.181 0.029 0.326 0 0.614 0 0.864 0 0.442 0 0.778-0.010 1.008-0.029s0.442-0.029 0.634-0.029c0.211-0.019 0.47-0.029 0.778-0.029 0.192 0 0.288 0.077 0.288 0.23 0 0.096-0.019 0.202-0.058 0.317s-0.077 0.355-0.115 0.72c-0.038 0.365-0.058 0.97-0.058 1.814v3.139zM96.905 19.43c0.557 0.691 1.114 1.392 1.67 2.102 0.576 0.71 1.133 1.402 1.67 2.074 0.576 0.71 0.998 1.21 1.267 1.498s0.48 0.432 0.634 0.432h0.95c0.077 0 0.134 0.048 0.173 0.144s0.058 0.192 0.058 0.288c0 0.096-0.019 0.192-0.058 0.288s-0.096 0.144-0.173 0.144c-0.768 0-1.392 0-1.872 0-0.48-0.019-0.883-0.029-1.21-0.029-0.288 0-0.662 0.010-1.123 0.029-0.461 0-0.922 0-1.382 0-0.461 0.019-0.854 0.029-1.181 0.029-0.058 0-0.106-0.048-0.144-0.144-0.019-0.115-0.029-0.221-0.029-0.317s0.010-0.182 0.029-0.259c0.038-0.077 0.086-0.115 0.144-0.115h1.469c0.23 0 0.346-0.086 0.346-0.259 0-0.307-0.173-0.71-0.518-1.21-0.326-0.499-0.71-1.018-1.152-1.555-0.422-0.538-0.787-1.008-1.094-1.411-0.384 0.461-0.797 0.941-1.238 1.44-0.422 0.499-0.778 0.931-1.066 1.296-0.422 0.518-0.701 0.922-0.835 1.21-0.115 0.288-0.144 0.432-0.086 0.432h1.44c0.077 0 0.125 0.048 0.144 0.144 0.038 0.077 0.058 0.163 0.058 0.259s-0.019 0.202-0.058 0.317c-0.038 0.096-0.086 0.144-0.144 0.144-0.614 0-1.123 0-1.526 0-0.403-0.019-0.768-0.029-1.094-0.029-0.307 0-0.701 0.010-1.181 0.029-0.461 0.019-0.902 0.029-1.325 0.029-0.058 0-0.106-0.058-0.144-0.173-0.019-0.115-0.029-0.221-0.029-0.317 0-0.23 0.058-0.346 0.173-0.346h0.922c0.288 0 0.528-0.096 0.72-0.288 0.518-0.557 1.171-1.267 1.958-2.131 0.806-0.864 1.68-1.814 2.621-2.851-0.806-1.018-1.526-1.91-2.16-2.678-0.614-0.787-1.238-1.565-1.872-2.333-0.192-0.211-0.403-0.384-0.634-0.518-0.23-0.154-0.442-0.23-0.634-0.23h-0.576c-0.058 0-0.106-0.038-0.144-0.115-0.019-0.096-0.029-0.182-0.029-0.259 0-0.096 0.010-0.182 0.029-0.259 0.038-0.096 0.086-0.144 0.144-0.144 0.557 0 1.075 0.010 1.555 0.029 0.499 0.019 1.018 0.029 1.555 0.029 0.211 0 0.518 0 0.922 0 0.422-0.019 0.864-0.029 1.325-0.029 0.461-0.019 0.864-0.029 1.21-0.029 0.058 0 0.096 0.038 0.115 0.115 0.038 0.077 0.058 0.163 0.058 0.259 0 0.25-0.058 0.374-0.173 0.374h-1.728c-0.154 0-0.23 0.067-0.23 0.202 0 0.077 0.134 0.317 0.403 0.72 0.288 0.384 0.643 0.854 1.066 1.411 0.442 0.557 0.893 1.123 1.354 1.699 0.595-0.691 1.046-1.219 1.354-1.584 0.326-0.365 0.566-0.653 0.72-0.864s0.288-0.413 0.403-0.605c0.192-0.365 0.288-0.614 0.288-0.749s-0.048-0.202-0.144-0.202h-1.094c-0.058 0-0.096-0.038-0.115-0.115-0.019-0.096-0.029-0.182-0.029-0.259 0-0.096 0.010-0.182 0.029-0.259 0.019-0.096 0.058-0.144 0.115-0.144 0.499 0 0.941 0.010 1.325 0.029 0.403 0.019 0.874 0.029 1.411 0.029 0.288 0 0.624-0.010 1.008-0.029s0.797-0.029 1.238-0.029c0.077 0 0.125 0.048 0.144 0.144 0.038 0.096 0.058 0.192 0.058 0.288 0 0.211-0.067 0.317-0.202 0.317h-1.152c-0.173 0-0.326 0.067-0.461 0.202-0.48 0.499-1.114 1.19-1.901 2.074-0.768 0.883-1.546 1.757-2.333 2.621z"></path></svg>