<svg xmlns="http://www.w3.org/2000/svg" width="83" height="32" viewBox="0 0 83 32"><path d="M8.381 25.946c-1.344 0-2.544-0.317-3.6-0.95s-1.882-1.517-2.477-2.65c-0.595-1.152-0.893-2.486-0.893-4.003 0-1.536 0.288-2.87 0.864-4.003 0.595-1.133 1.421-2.016 2.477-2.65 1.075-0.634 2.304-0.95 3.686-0.95 1.421 0 2.63 0.317 3.629 0.95s1.757 1.469 2.275 2.506c0.538 1.018 0.806 2.141 0.806 3.37 0 0.192 0 0.394 0 0.605s-0.010 0.451-0.029 0.72h-11.894v-1.872h9.533c-0.058-1.325-0.499-2.362-1.325-3.11-0.806-0.749-1.824-1.123-3.053-1.123-0.806 0-1.565 0.192-2.275 0.576-0.71 0.365-1.277 0.912-1.699 1.642-0.422 0.71-0.634 1.603-0.634 2.678v0.806c0 1.19 0.211 2.189 0.634 2.995 0.442 0.806 1.008 1.411 1.699 1.814 0.71 0.403 1.469 0.605 2.275 0.605 1.018 0 1.853-0.221 2.506-0.662 0.672-0.461 1.162-1.085 1.469-1.872h2.39c-0.25 0.883-0.662 1.67-1.238 2.362-0.576 0.672-1.296 1.21-2.16 1.613-0.845 0.403-1.834 0.605-2.966 0.605zM23.281 25.946c-1.19 0-2.237-0.202-3.139-0.605s-1.622-0.96-2.16-1.67c-0.518-0.73-0.835-1.584-0.95-2.563h2.477c0.096 0.499 0.298 0.96 0.605 1.382s0.72 0.768 1.238 1.037c0.538 0.25 1.19 0.374 1.958 0.374 0.672 0 1.229-0.096 1.67-0.288 0.442-0.211 0.768-0.49 0.979-0.835 0.23-0.346 0.346-0.72 0.346-1.123 0-0.595-0.144-1.046-0.432-1.354-0.269-0.307-0.672-0.547-1.21-0.72-0.538-0.192-1.19-0.355-1.958-0.49-0.634-0.115-1.258-0.269-1.872-0.461s-1.162-0.442-1.642-0.749c-0.48-0.326-0.864-0.72-1.152-1.181-0.269-0.461-0.403-1.027-0.403-1.699 0-0.826 0.211-1.555 0.634-2.189 0.442-0.653 1.056-1.162 1.843-1.526s1.709-0.547 2.765-0.547c1.555 0 2.813 0.374 3.773 1.123s1.526 1.834 1.699 3.254h-2.39c-0.096-0.73-0.413-1.296-0.95-1.699-0.518-0.422-1.238-0.634-2.16-0.634-0.902 0-1.594 0.182-2.074 0.547-0.461 0.365-0.691 0.845-0.691 1.44 0 0.384 0.125 0.73 0.374 1.037 0.269 0.288 0.662 0.538 1.181 0.749s1.142 0.384 1.872 0.518c0.96 0.173 1.834 0.403 2.621 0.691s1.421 0.72 1.901 1.296c0.499 0.557 0.749 1.354 0.749 2.39 0 0.902-0.23 1.69-0.691 2.362-0.442 0.672-1.075 1.2-1.901 1.584-0.826 0.365-1.795 0.547-2.909 0.547zM36.745 25.6c-0.864 0-1.613-0.134-2.246-0.403s-1.123-0.72-1.469-1.354c-0.326-0.653-0.49-1.526-0.49-2.621v-8.093h-2.534v-2.045h2.534l0.317-3.514h2.102v3.514h4.205v2.045h-4.205v8.093c0 0.902 0.182 1.517 0.547 1.843 0.365 0.307 1.008 0.461 1.93 0.461h1.555v2.074h-2.246zM46.467 25.946c-1.171 0-2.15-0.202-2.938-0.605-0.787-0.422-1.373-0.97-1.757-1.642-0.384-0.691-0.576-1.44-0.576-2.246 0-0.979 0.25-1.805 0.749-2.477 0.518-0.691 1.238-1.21 2.16-1.555 0.941-0.365 2.045-0.547 3.312-0.547h3.83c0-0.902-0.144-1.651-0.432-2.246-0.269-0.614-0.672-1.075-1.21-1.382-0.518-0.307-1.171-0.461-1.958-0.461-0.922 0-1.718 0.23-2.39 0.691s-1.085 1.142-1.238 2.045h-2.477c0.115-1.037 0.461-1.901 1.037-2.592 0.595-0.71 1.344-1.248 2.246-1.613 0.902-0.384 1.843-0.576 2.822-0.576 1.344 0 2.458 0.25 3.341 0.749 0.902 0.48 1.574 1.162 2.016 2.045 0.442 0.864 0.662 1.891 0.662 3.082v8.986h-2.16l-0.144-2.563c-0.192 0.403-0.442 0.787-0.749 1.152-0.288 0.346-0.634 0.653-1.037 0.922-0.384 0.25-0.835 0.451-1.354 0.605s-1.104 0.23-1.757 0.23zM46.842 23.901c0.672 0 1.277-0.134 1.814-0.403 0.557-0.288 1.027-0.672 1.411-1.152 0.384-0.499 0.672-1.046 0.864-1.642 0.211-0.595 0.317-1.219 0.317-1.872v-0.086h-3.629c-0.941 0-1.699 0.115-2.275 0.346-0.576 0.211-0.989 0.518-1.238 0.922-0.25 0.384-0.374 0.826-0.374 1.325 0 0.518 0.115 0.97 0.346 1.354 0.25 0.384 0.605 0.682 1.066 0.893 0.48 0.211 1.046 0.317 1.699 0.317zM56.834 25.6v-20.736h2.419v20.736h-2.419zM62.901 25.6v-14.515h2.419v14.515h-2.419zM64.11 8.003c-0.48 0-0.883-0.154-1.21-0.461-0.307-0.326-0.461-0.73-0.461-1.21s0.154-0.864 0.461-1.152c0.326-0.307 0.73-0.461 1.21-0.461 0.461 0 0.854 0.154 1.181 0.461 0.326 0.288 0.49 0.672 0.49 1.152s-0.163 0.883-0.49 1.21c-0.326 0.307-0.72 0.461-1.181 0.461zM73.736 25.946c-1.171 0-2.15-0.202-2.938-0.605-0.787-0.422-1.373-0.97-1.757-1.642-0.384-0.691-0.576-1.44-0.576-2.246 0-0.979 0.25-1.805 0.749-2.477 0.518-0.691 1.238-1.21 2.16-1.555 0.941-0.365 2.045-0.547 3.312-0.547h3.83c0-0.902-0.144-1.651-0.432-2.246-0.269-0.614-0.672-1.075-1.21-1.382-0.518-0.307-1.171-0.461-1.958-0.461-0.922 0-1.718 0.23-2.39 0.691s-1.085 1.142-1.238 2.045h-2.477c0.115-1.037 0.461-1.901 1.037-2.592 0.595-0.71 1.344-1.248 2.246-1.613 0.902-0.384 1.843-0.576 2.822-0.576 1.344 0 2.458 0.25 3.341 0.749 0.902 0.48 1.574 1.162 2.016 2.045 0.442 0.864 0.662 1.891 0.662 3.082v8.986h-2.16l-0.144-2.563c-0.192 0.403-0.442 0.787-0.749 1.152-0.288 0.346-0.634 0.653-1.037 0.922-0.384 0.25-0.835 0.451-1.354 0.605s-1.104 0.23-1.757 0.23zM74.111 23.901c0.672 0 1.277-0.134 1.814-0.403 0.557-0.288 1.027-0.672 1.411-1.152 0.384-0.499 0.672-1.046 0.864-1.642 0.211-0.595 0.317-1.219 0.317-1.872v-0.086h-3.629c-0.941 0-1.699 0.115-2.275 0.346-0.576 0.211-0.989 0.518-1.238 0.922-0.25 0.384-0.374 0.826-0.374 1.325 0 0.518 0.115 0.97 0.346 1.354 0.25 0.384 0.605 0.682 1.066 0.893 0.48 0.211 1.046 0.317 1.699 0.317z"></path></svg>