<svg xmlns="http://www.w3.org/2000/svg" width="90" height="32" viewBox="0 0 90 32"><path d="M1.48 25.6v-19.2h3.14v8.3c0.427-0.48 0.933-0.84 1.52-1.080 0.587-0.253 1.207-0.38 1.86-0.38 0.853 0 1.647 0.207 2.38 0.62 0.747 0.413 1.347 1.013 1.8 1.8 0.453 0.773 0.68 1.72 0.68 2.84v7.1h-3.14v-6.68c0-0.747-0.22-1.407-0.66-1.98s-1.067-0.86-1.88-0.86c-0.667 0-1.26 0.233-1.78 0.7-0.52 0.453-0.78 1.147-0.78 2.080v6.74h-3.14zM21.351 25.96c-1.187 0-2.273-0.287-3.26-0.86-0.973-0.573-1.747-1.34-2.32-2.3s-0.86-2.027-0.86-3.2 0.287-2.24 0.86-3.2c0.573-0.96 1.347-1.727 2.32-2.3 0.987-0.573 2.067-0.86 3.24-0.86 1.2 0 2.287 0.287 3.26 0.86s1.747 1.34 2.32 2.3c0.587 0.947 0.88 2.013 0.88 3.2 0 1.16-0.293 2.227-0.88 3.2-0.573 0.96-1.347 1.727-2.32 2.3s-2.053 0.86-3.24 0.86zM21.331 23.12c0.653 0 1.24-0.16 1.76-0.48s0.933-0.747 1.24-1.28c0.307-0.533 0.46-1.12 0.46-1.76 0-0.653-0.153-1.24-0.46-1.76-0.307-0.533-0.72-0.96-1.24-1.28s-1.107-0.48-1.76-0.48c-0.64 0-1.22 0.16-1.74 0.48s-0.933 0.747-1.24 1.28c-0.307 0.52-0.46 1.107-0.46 1.76 0 0.64 0.153 1.227 0.46 1.76s0.72 0.96 1.24 1.28 1.1 0.48 1.74 0.48zM30.083 25.6v-12h2.82v1.42c0.44-0.587 0.98-1.027 1.62-1.32 0.64-0.307 1.313-0.46 2.020-0.46 0.733 0 1.42 0.16 2.060 0.48 0.64 0.307 1.173 0.76 1.6 1.36 0.467-0.6 1.053-1.053 1.76-1.36 0.707-0.32 1.467-0.48 2.28-0.48 0.867 0 1.673 0.2 2.42 0.6s1.353 0.98 1.82 1.74c0.467 0.76 0.7 1.673 0.7 2.74v7.28h-3.16v-6.84c0-0.76-0.22-1.393-0.66-1.9-0.427-0.507-1.007-0.76-1.74-0.76-0.413 0-0.807 0.093-1.18 0.28s-0.673 0.473-0.9 0.86c-0.227 0.387-0.34 0.88-0.34 1.48v6.88h-3.16v-6.84c0-0.507-0.1-0.96-0.3-1.36-0.2-0.413-0.48-0.733-0.84-0.96-0.36-0.24-0.78-0.36-1.26-0.36-0.4 0-0.787 0.1-1.16 0.3-0.373 0.187-0.68 0.473-0.92 0.86-0.227 0.387-0.34 0.88-0.34 1.48v6.88h-3.14zM57.96 25.96c-1.32 0-2.493-0.28-3.52-0.84-1.013-0.56-1.807-1.327-2.38-2.3-0.56-0.987-0.84-2.1-0.84-3.34 0-1.187 0.273-2.247 0.82-3.18 0.56-0.947 1.313-1.693 2.26-2.24s1.993-0.82 3.14-0.82c1.173 0 2.22 0.273 3.14 0.82 0.933 0.533 1.673 1.26 2.22 2.18s0.82 1.967 0.82 3.14v1.14h-7.46c-0.333 0-0.66-0.020-0.98-0.060s-0.64-0.087-0.96-0.14c0.16 0.867 0.58 1.58 1.26 2.14s1.533 0.84 2.56 0.84c0.76 0 1.447-0.16 2.060-0.48s1.12-0.72 1.52-1.2l0.72 2.94c-0.6 0.467-1.273 0.813-2.020 1.040-0.747 0.24-1.533 0.36-2.36 0.36zM54.14 18.38c0.68-0.133 1.353-0.2 2.020-0.2h2.58c0.36 0 0.7 0.013 1.020 0.040s0.627 0.067 0.92 0.12c-0.2-0.773-0.593-1.393-1.18-1.86-0.573-0.467-1.267-0.7-2.080-0.7-0.8 0-1.493 0.24-2.080 0.72s-0.987 1.107-1.2 1.88zM63.806 25.6l4.16-6.28-3.78-5.72h3.5l1.16 1.84c0.173 0.267 0.34 0.547 0.5 0.84 0.173 0.293 0.333 0.6 0.48 0.92 0.16-0.32 0.32-0.62 0.48-0.9 0.173-0.293 0.347-0.58 0.52-0.86l1.14-1.84h3.46l-3.8 5.72 4.18 6.28h-3.54l-1.64-2.62c-0.147-0.24-0.3-0.487-0.46-0.74-0.147-0.253-0.28-0.507-0.4-0.76-0.133 0.253-0.273 0.507-0.42 0.76s-0.293 0.5-0.44 0.74l-1.64 2.62h-3.46zM82.118 25.88c-1.093 0-2.093-0.28-3-0.84-0.907-0.573-1.633-1.333-2.18-2.28-0.533-0.96-0.8-2.013-0.8-3.16s0.267-2.193 0.8-3.14c0.547-0.96 1.273-1.72 2.18-2.28 0.907-0.573 1.907-0.86 3-0.86 0.787 0 1.514 0.14 2.18 0.42s1.234 0.673 1.7 1.18v-1.32h2.74v12h-2.74v-1.32c-0.466 0.493-1.033 0.887-1.7 1.18-0.666 0.28-1.393 0.42-2.18 0.42zM82.498 23.1c0.64 0 1.214-0.16 1.72-0.48 0.52-0.32 0.934-0.74 1.24-1.26 0.307-0.533 0.46-1.12 0.46-1.76s-0.153-1.22-0.46-1.74c-0.306-0.533-0.72-0.96-1.24-1.28-0.506-0.32-1.073-0.48-1.7-0.48-0.64 0-1.22 0.16-1.74 0.48-0.506 0.32-0.913 0.747-1.22 1.28-0.307 0.52-0.46 1.1-0.46 1.74s0.153 1.227 0.46 1.76c0.307 0.52 0.713 0.94 1.22 1.26 0.52 0.32 1.094 0.48 1.72 0.48z"></path></svg>