<svg xmlns="http://www.w3.org/2000/svg" width="94" height="32" viewBox="0 0 94 32"><path d="M1.613 27.2v-23.040h3.038v20.347h5.429v2.693h-8.467zM11.963 27.2v-23.040h3.038v23.040h-3.038zM20.121 27.2l-2.837-23.040h3.125l1.498 12.355 0.446 7.978h1.21l0.446-7.978 1.498-12.355h3.154l-2.866 23.040h-5.674zM35.507 27.43c-1.795 0-3.091-0.365-3.888-1.094s-1.214-1.939-1.253-3.629c-0.019-1.306-0.034-2.534-0.043-3.686s-0.014-2.28-0.014-3.384c0-1.104 0.005-2.227 0.014-3.37s0.024-2.352 0.043-3.629c0.038-1.68 0.456-2.885 1.253-3.614s2.093-1.094 3.888-1.094c1.776 0 3.062 0.365 3.859 1.094s1.214 1.934 1.253 3.614c0.038 1.286 0.067 2.501 0.086 3.643s0.029 2.266 0.029 3.37c0 1.104-0.010 2.232-0.029 3.384-0.019 1.142-0.048 2.366-0.086 3.672-0.038 1.69-0.456 2.899-1.253 3.629s-2.083 1.094-3.859 1.094zM35.507 24.896c0.758 0 1.291-0.149 1.598-0.446 0.317-0.298 0.48-0.826 0.49-1.584 0.038-1.315 0.067-2.558 0.086-3.73 0.029-1.181 0.043-2.333 0.043-3.456 0-1.133-0.014-2.285-0.043-3.456-0.019-1.181-0.048-2.429-0.086-3.744-0.010-0.749-0.173-1.272-0.49-1.57-0.307-0.307-0.84-0.461-1.598-0.461s-1.296 0.154-1.613 0.461c-0.307 0.298-0.47 0.821-0.49 1.57-0.048 1.296-0.082 2.53-0.101 3.701-0.019 1.162-0.029 2.309-0.029 3.442 0 1.123 0.010 2.28 0.029 3.47 0.019 1.181 0.053 2.438 0.101 3.773 0.019 0.758 0.182 1.286 0.49 1.584 0.317 0.298 0.854 0.446 1.613 0.446zM43.716 27.2v-23.040h4.867c1.699 0 2.928 0.346 3.686 1.037 0.768 0.682 1.176 1.814 1.224 3.398 0.029 0.768 0.048 1.464 0.058 2.088 0.010 0.614 0.010 1.214 0 1.8-0.010 0.576-0.029 1.2-0.058 1.872-0.038 1.027-0.226 1.858-0.562 2.491-0.326 0.634-0.83 1.109-1.512 1.426l2.462 8.928h-3.197l-2.146-8.424h-1.786v8.424h-3.038zM46.754 16.083h1.814c0.653 0 1.123-0.13 1.411-0.389 0.298-0.259 0.461-0.662 0.49-1.21 0.029-0.72 0.048-1.402 0.058-2.045 0.010-0.653 0.010-1.301 0-1.944 0-0.643-0.019-1.325-0.058-2.045-0.029-0.557-0.192-0.96-0.49-1.21-0.288-0.259-0.754-0.389-1.397-0.389h-1.829v9.23zM55.422 27.2l2.75-23.040h5.645l2.736 23.040h-3.11l-0.547-5.89h-3.816l-0.547 5.89h-3.11zM59.353 18.618h3.269l-0.475-4.968-0.533-6.797h-1.253l-0.533 6.811-0.475 4.954zM68.832 27.2v-23.040h5.515l1.44 7.315 1.8 13.018h1.238l-0.49-11.534-0.202-8.798h3.038v23.040h-5.731l-1.526-7.992-1.454-12.37h-1.267l0.446 11.664 0.23 8.698h-3.038zM84.385 27.2v-23.040h8.669v2.693h-5.63v7.358h5.342v2.693h-5.342v7.603h5.63v2.693h-8.669z"></path></svg>